<?xml version="1.0" encoding="UTF-8"?>
<svg width="10px" height="16px" viewBox="0 0 10 16" version="1.1" xmlns="http://www.w3.org/2000/svg" xmlns:xlink="http://www.w3.org/1999/xlink">
    <!-- Generator: Sketch 54.1 (76490) - https://sketchapp.com -->
    <title>Fill 1</title>
    <desc>Created with Sketch.</desc>
    <g id="Page-1" stroke="none" stroke-width="1" fill="none" fill-rule="evenodd">
        <g id="Car-concept" transform="translate(-735.000000, -624.000000)" fill="#CBCDE0">
            <path d="M735,634.38944 C735,637.50624 737.208838,640 739.96953,640 C742.730223,640 745,637.50624 745,634.38944 C745,632.812472 743.269547,630.494495 741.818182,628 C741.03832,626.659634 740.591231,624.91994 739.96953,624 C739.301474,625.023541 739.032393,626.489233 738.181818,628 C736.845303,630.373881 735,632.908248 735,634.38944 Z M741.751843,633.800527 C741.751843,632.733158 743,632.733158 743,633.800527 C743,636.149095 741.468146,638 739.595923,638 C738.801359,638 738.801359,636.434277 739.595923,636.434277 C740.787252,636.434277 741.751764,635.224333 741.751764,633.801119 L741.751843,633.800527 Z" id="Fill-1"></path>
        </g>
    </g>
</svg>