<?xml version="1.0" encoding="UTF-8"?>
<svg width="18px" height="20px" viewBox="0 0 18 20" version="1.1" xmlns="http://www.w3.org/2000/svg" xmlns:xlink="http://www.w3.org/1999/xlink">
    <!-- Generator: Sketch 54.1 (76490) - https://sketchapp.com -->
    <title>Group 5</title>
    <desc>Created with Sketch.</desc>
    <g id="Page-1" stroke="none" stroke-width="1" fill="none" fill-rule="evenodd" opacity="0.55031622">
        <g id="Car-concept" transform="translate(-38.000000, -321.000000)" fill="#878BAD">
            <g id="Group-5" transform="translate(38.000000, 321.000000)">
                <path d="M14.9210526,1.07142857 L13.9338947,1.07142857 C13.3889684,1.07142857 12.9476605,1.516 12.9476605,2.06380952 C12.9476605,2.61161905 13.3889684,3.0552619 13.9338947,3.0552619 L14.9210526,3.0552619 C15.1828816,3.0552619 15.4336026,3.16035952 15.6186237,3.34638095 C15.8036447,3.53240238 15.9082105,3.78442857 15.9082105,4.04764286 L15.9082105,16.9447857 C15.9082105,17.208 15.8036661,17.4600476 15.6186237,17.6460476 C15.4335813,17.8320476 15.1828816,17.9362381 14.9210526,17.9362381 L3.07894737,17.9362381 C2.53402105,17.9362381 2.09178947,17.4925952 2.09178947,16.9447857 L2.09178947,4.04764286 C2.09178947,3.49983333 2.53402105,3.0552619 3.07894737,3.0552619 L4.06610526,3.0552619 C4.61103158,3.0552619 5.05233947,2.61161905 5.05233947,2.06380952 C5.05233947,1.516 4.61103158,1.07142857 4.06610526,1.07142857 L3.07894737,1.07142857 C1.44419211,1.07142857 0.118421053,2.40421429 0.118421053,4.04761905 L0.118421053,16.9447619 C0.118421053,18.5881667 1.44419211,19.9209521 3.07894737,19.9209521 L14.9210526,19.9209521 C16.5558079,19.9209521 17.8815789,18.5881667 17.8815789,16.9447619 L17.8815789,4.04761905 C17.8815789,2.40421429 16.5558079,1.07142857 14.9210526,1.07142857 Z" id="Fill-1"></path>
                <path d="M7.02663158,5.04 L10.9743158,5.04 L10.9733897,5.04 C11.5183161,5.04 11.9605476,4.59542857 11.9605476,4.04761905 C11.9605476,3.49980952 11.5183161,3.0552381 10.9733897,3.0552381 L9.98715553,3.0552381 L9.98715553,1.07142857 C9.98715553,0.523619048 9.54492395,0.079047619 8.99999763,0.079047619 C8.45507132,0.079047619 8.01283974,0.523619048 8.01283974,1.07142857 L8.01283974,3.0552381 L7.02660553,3.0552381 C6.48167921,3.0552381 6.03944763,3.49980952 6.03944763,4.04761905 C6.03944763,4.59542857 6.48167921,5.04 7.02660553,5.04 L7.02663158,5.04 Z" id="Fill-2"></path>
                <path d="M6.03947368,10 L11.9605263,10 C12.5054526,10 12.9476842,9.55542857 12.9476842,9.00761905 C12.9476842,8.45980952 12.5054526,8.01616667 11.9605263,8.01616667 L6.03947368,8.01616667 C5.49454737,8.01616667 5.05231579,8.45980952 5.05231579,9.00761905 C5.05231579,9.55542857 5.49454737,10 6.03947368,10 Z" id="Fill-3"></path>
                <path d="M11.9605263,12.9761905 L6.03947368,12.9761905 C5.49454737,12.9761905 5.05231579,13.4207619 5.05231579,13.9685714 C5.05231579,14.516381 5.49454737,14.9600238 6.03947368,14.9600238 L11.9605263,14.9600238 C12.5054526,14.9600238 12.9476842,14.516381 12.9476842,13.9685714 C12.9476842,13.4207619 12.5054526,12.9761905 11.9605263,12.9761905 Z" id="Fill-4"></path>
            </g>
        </g>
    </g>
</svg>