<?xml version="1.0" encoding="UTF-8"?>
<svg width="20px" height="20px" viewBox="0 0 20 20" version="1.1" xmlns="http://www.w3.org/2000/svg" xmlns:xlink="http://www.w3.org/1999/xlink">
    <!-- Generator: Sketch 54.1 (76490) - https://sketchapp.com -->
    <title>Group 4</title>
    <desc>Created with Sketch.</desc>
    <g id="Page-1" stroke="none" stroke-width="1" fill="none" fill-rule="evenodd">
        <g id="Car-concept" transform="translate(-156.000000, -145.000000)" fill="#FFFFFF">
            <g id="Group-16" transform="translate(127.000000, 121.000000)">
                <g id="Group-4" transform="translate(30.000000, 25.000000)">
                    <path d="M9,11.2196 C9.22812,11.2196 9.44688,11.128976 9.6086,10.96804 C9.770318,10.806322 9.86094,10.58758 9.86094,10.35866 L9.86094,4.44926 C9.86094,3.97348 9.47578,3.58832 9,3.58832 C8.52422,3.58832 8.13906,3.97348 8.13906,4.44926 L8.13906,10.35866 C8.13906,10.58756 8.229686,10.80632 8.3914,10.96804 C8.553118,11.128978 8.77186,11.2196 9,11.2196 Z" id="Fill-1"></path>
                    <path d="M9,12.6906 C8.65156,12.6906 8.33828,12.89998 8.20468,13.22184 C8.071868,13.54294 8.145304,13.91324 8.391398,14.15934 C8.637498,14.40622 9.007798,14.47966 9.329678,14.346058 C9.651558,14.213246 9.860918,13.899178 9.860918,13.550738 C9.860918,13.322618 9.770292,13.103858 9.608578,12.942138 C9.44764,12.7812 9.228118,12.690578 8.999978,12.690578 L9,12.6906 Z" id="Fill-2"></path>
                    <path d="M9,18 C11.3868,18 13.6758,17.05156 15.364,15.364 C17.0515,13.67572 18,11.3866 18,9 C18,6.6134 17.05156,4.3242 15.364,2.636 C13.67572,0.9485 11.3866,0 9,0 C6.6134,0 4.3242,0.94844 2.636,2.636 C0.9485,4.32428 0,6.6134 0,9 C0.0023438,11.386 0.95156,13.6734 2.639,15.361 C4.32644,17.0486 6.614,17.9978 9,18 Z M9,1.4 C11.0156,1.4 12.9484,2.20078 14.3742,3.6258 C15.7992,5.05158 16.6,6.9844 16.6,9 C16.6,11.0156 15.79922,12.9484 14.3742,14.3742 C12.94842,15.7992 11.0156,16.6 9,16.6 C6.9844,16.6 5.0516,15.79922 3.6258,14.3742 C2.2008,12.94842 1.4,11.0156 1.4,9 C1.402344,6.9852 2.2039,5.0532 3.629,3.629 C5.05322,2.204 6.9852,1.4024 9,1.4 Z" id="Fill-3" stroke="#FFFFFF" stroke-width="0.3"></path>
                </g>
            </g>
        </g>
    </g>
</svg>