<?xml version="1.0" encoding="UTF-8"?>
<svg width="19px" height="19px" viewBox="0 0 19 19" version="1.1" xmlns="http://www.w3.org/2000/svg" xmlns:xlink="http://www.w3.org/1999/xlink">
    <!-- Generator: Sketch 54.1 (76490) - https://sketchapp.com -->
    <title>Fill 1</title>
    <desc>Created with Sketch.</desc>
    <g id="Page-1" stroke="none" stroke-width="1" fill="none" fill-rule="evenodd" opacity="0.55031622">
        <g id="Car-concept" transform="translate(-38.000000, -251.000000)" fill="#1C8CF9" stroke="#878BAD">
            <path d="M56,260.5 C56,265.189571 52.1895714,269 47.5,269 C42.8104286,269 39,265.189571 39,260.5 C39,255.810429 42.8104286,252 47.5,252 C52.1895714,252 56,255.810429 56,260.5 Z M55.1841619,260.904762 L47.4999595,260.904762 C47.3600313,260.904762 47.2374917,260.835193 47.1647762,260.727679 L41.7826571,255.352036 C40.5565119,256.714161 39.8094429,258.519702 39.8094429,260.500202 C39.8094429,264.752631 43.2474905,268.190679 47.499919,268.190679 C51.6171571,268.190679 54.9754667,264.969179 55.1841214,260.904964 L55.1841619,260.904762 Z M55.1841619,260.095238 C55.0537213,257.557583 53.6955488,255.351226 51.6930905,254.049107 L48.202019,260.095238 L55.1841619,260.095238 Z M50.991031,253.644345 C49.9443369,253.111517 48.7569476,252.809524 47.4999595,252.809524 C45.5196214,252.809524 43.7202929,253.555804 42.358269,254.782738 L47.4177929,259.842262 L50.991031,253.644345 Z" id="Fill-1"></path>
        </g>
    </g>
</svg>