<?xml version="1.0" encoding="UTF-8"?>
<svg width="20px" height="21px" viewBox="0 0 20 21" version="1.1" xmlns="http://www.w3.org/2000/svg" xmlns:xlink="http://www.w3.org/1999/xlink">
    <!-- Generator: Sketch 54.1 (76490) - https://sketchapp.com -->
    <title>Group 3</title>
    <desc>Created with Sketch.</desc>
    <g id="Page-1" stroke="none" stroke-width="1" fill="none" fill-rule="evenodd" opacity="0.55031622">
        <g id="Car-concept" transform="translate(-37.000000, -392.000000)" fill="#878BAD">
            <g id="Group-3" transform="translate(37.000000, 392.000000)">
                <path d="M0.0774318172,13.112526 C-0.0780035994,13.690845 0.00256098391,14.308539 0.301223484,14.826987 L1.34532765,16.649724 L1.34532765,16.6505451 C1.96545265,17.7292521 3.33426515,18.0992091 4.40678598,17.4774201 L4.86414015,17.2083681 C5.38253598,17.5914501 5.94080682,17.9179371 6.52918182,18.1812561 L6.52918182,18.7185621 C6.52918182,19.9744667 7.54643182,20.9997916 8.78022348,20.9997916 L10.8683485,20.9997916 C12.1037027,20.9997916 13.1208485,19.9744035 13.1208485,18.7177221 L13.1208485,18.1804161 C13.7092235,17.9170971 14.2666818,17.5914291 14.7858902,17.2067091 L15.2456818,17.4757611 L15.2448672,17.4765801 C16.3166381,18.0991881 17.6863256,17.7292311 18.3054922,16.6497051 L19.3487839,14.8269681 L19.3487839,14.8261491 C19.9664506,13.7458041 19.5986172,12.3651591 18.5276589,11.7401991 L18.0654089,11.4711471 C18.1402777,10.8255651 18.1402777,10.1734101 18.0654089,9.5278281 L18.5276589,9.2587761 C19.5986172,8.6336901 19.9656381,7.2531081 19.3479714,6.1728261 L18.3038672,4.3500891 L18.3038672,4.349268 C17.6845547,3.270561 16.3149297,2.900604 15.2432422,3.522393 L14.7858881,3.791445 C14.2674922,3.408363 13.7092214,3.081876 13.1208464,2.819376 L13.1208464,2.28207 C13.1208464,1.025346 12.1035964,7.10542736e-14 10.8689714,7.10542736e-14 L8.78001307,7.10542736e-14 C7.5462839,7.10542736e-14 6.5289714,1.025388 6.5289714,2.28207 L6.5289714,2.819376 C5.9405964,3.082695 5.38313807,3.408363 4.86392973,3.793083 L4.40332557,3.524031 L4.40414015,3.523212 C3.88980682,3.223794 3.27866098,3.142587 2.70493182,3.29763 C2.13120265,3.4518498 1.64209848,3.830841 1.34507765,4.349268 L0.300973484,6.172824 C-0.316693183,7.253988 0.0503276506,8.634654 1.12128598,9.259614 L1.58353598,9.528666 C1.50947973,10.174248 1.50947973,10.826403 1.58353598,11.471985 L1.12128598,11.741037 C0.605327651,12.039636 0.229369317,12.533451 0.0771818172,13.112589 L0.0774318172,13.112526 Z M1.87593182,13.0583859 L3.24393182,12.2634939 L3.14871723,11.7360369 C3.00141932,10.9190109 3.00141932,10.0822869 3.14871723,9.2651769 L3.24393182,8.7360819 L1.87674432,7.9403709 C1.52761932,7.7361123 1.40718182,7.2857589 1.60899432,6.9330219 L2.65391098,5.1102849 C2.8557339,4.7575479 3.30332765,4.6361469 3.65326515,4.8395739 L5.02370265,5.6369229 L5.43059848,5.2891209 C6.05478598,4.7509959 6.77093182,4.3318149 7.54414015,4.0529139 L8.03486932,3.8732652 L8.03486932,2.2818642 C8.03486932,1.8717132 8.38561932,1.5173382 8.78030682,1.5173382 L10.8684318,1.5173382 C11.2647443,1.5173382 11.6154943,1.8700752 11.6154943,2.2818642 L11.6154943,3.8732652 L12.108661,4.053735 C12.8825777,4.331817 13.599536,4.750998 14.2244943,5.289942 L14.6281402,5.637744 L15.9985777,4.839576 C16.3485152,4.6369596 16.7944735,4.7575458 16.9971193,5.109468 L18.0412235,6.932205 L18.0412235,6.9330261 C18.2430464,7.2857631 18.1226027,7.7361081 17.7734735,7.9403751 L16.406286,8.7360861 L16.5015006,9.2635431 C16.6487985,10.0805691 16.6487985,10.9181121 16.5015006,11.7352431 L16.406286,12.2635191 L17.7734735,13.0592301 C18.1225985,13.2634887 18.243036,13.7138421 18.0412235,14.0665791 L16.9963068,15.8893161 C16.7944839,16.2420531 16.3468902,16.3634541 15.9969527,16.1600271 L14.6265152,15.3626781 L14.2196193,15.7104801 C13.5954318,16.2486051 12.879286,16.6677861 12.1060777,16.9466871 L11.6153485,17.1263358 L11.6153485,18.7177368 C11.6153485,19.1278874 11.2645985,19.4822624 10.8690985,19.4822624 L8.78014015,19.4822624 C8.38464015,19.4822624 8.03470265,19.1295254 8.03470265,18.7177368 L8.03470265,17.1263358 L7.54153598,16.945866 L7.54235057,16.945866 C6.76760057,16.667784 6.05064223,16.248603 5.42651723,15.710478 L5.0228714,15.362676 L3.6516214,16.160025 C3.3016839,16.3626414 2.85491307,16.2420552 2.65226723,15.890133 L1.60897557,14.066577 C1.40715223,13.713021 1.52678182,13.261857 1.87672557,13.058409 L1.87593182,13.0583859 Z" id="Fill-1"></path>
                <path d="M9.82516098,15.031296 C11.0173902,15.031296 12.160786,14.553882 13.003911,13.704033 C13.8470152,12.854184 14.3206402,11.701641 14.3206402,10.499853 C14.3206402,9.298065 13.8470152,8.145543 13.003911,7.295673 C12.1608068,6.445824 11.017411,5.96841 9.82516098,5.96841 C8.63291098,5.96841 7.48953598,6.445824 6.64641098,7.295673 C5.80330682,8.145522 5.32968182,9.298065 5.32968182,10.499853 C5.3313089,11.70162 5.80493182,12.853323 6.64803598,13.702353 C7.49032765,14.552202 8.63289015,15.029616 9.82511932,15.031254 L9.82516098,15.031296 Z M9.82516098,7.491036 C10.6169943,7.491036 11.3762652,7.807674 11.9362027,8.372049 C12.496911,8.936424 12.811036,9.702588 12.811036,10.500819 C12.811036,11.298987 12.4960985,12.064332 11.9362027,12.6287511 C11.3763068,13.1931681 10.617036,13.5105831 9.82516098,13.5097641 C9.03332765,13.5097641 8.27324432,13.1931261 7.71328598,12.6287511 C7.15339015,12.0635571 6.83926515,11.2982121 6.83926515,10.4999811 C6.84007973,9.7018131 7.15501515,8.9372871 7.71491098,8.3728911 C8.27480682,7.8084951 9.03326515,7.4910591 9.82511932,7.4902401 L9.82516098,7.491036 Z" id="Fill-2"></path>
            </g>
        </g>
    </g>
</svg>