<?xml version="1.0" encoding="UTF-8"?>
<svg width="20px" height="18px" viewBox="0 0 20 18" version="1.1" xmlns="http://www.w3.org/2000/svg" xmlns:xlink="http://www.w3.org/1999/xlink">
    <!-- Generator: Sketch 54.1 (76490) - https://sketchapp.com -->
    <title>Fill 1</title>
    <desc>Created with Sketch.</desc>
    <g id="Page-1" stroke="none" stroke-width="1" fill="none" fill-rule="evenodd">
        <g id="Car-concept" transform="translate(-37.000000, -180.000000)" fill="#646DBE">
            <path d="M55.3336201,196.363834 L55.3336201,180.8177 C55.3336201,180.600614 55.2453381,180.392738 55.0890801,180.239334 C54.9328221,180.085931 54.7211201,180 54.5000201,180 L49.5000203,180 C49.0398603,180 48.6664203,180.365894 48.6664203,180.8177 L48.6664203,185.624811 L44.5000204,185.624811 C44.0398604,185.624811 43.6664204,185.991471 43.6664204,186.443277 L43.6664204,191.454611 L39.5000206,191.454611 C39.0398606,191.454611 38.66642,191.821271 38.66642,192.273077 L38.66642,196.363834 L37.8336,196.363834 C37.3734401,196.363834 37,196.730494 37,197.1823 C37,197.399386 37.0875,197.607262 37.2437601,197.760666 C37.4000201,197.914069 37.6125201,198 37.8336,198 L56.1664,198 C56.3875,198 56.6,197.914089 56.75624,197.760666 C56.91248,197.607243 57,197.399386 57,197.1823 C57,196.965214 56.9125,196.756572 56.75624,196.603169 C56.59998,196.449765 56.38748,196.363834 56.1664,196.363834 L55.3336201,196.363834 Z M40.3336206,196.363834 L40.3336206,193.090757 L43.6672204,193.090757 L43.6672204,196.363834 L40.3336206,196.363834 Z M45.3336204,196.363834 L45.3336204,187.261153 L48.6672203,187.261153 L48.6664383,196.363834 L45.3336204,196.363834 Z M50.3336202,196.363834 L50.3336202,181.636165 L53.6672201,181.636165 L53.6664381,196.363834 L50.3336202,196.363834 Z" id="Fill-1"></path>
        </g>
    </g>
</svg>