<?xml version="1.0" encoding="UTF-8"?>
<svg width="31px" height="31px" viewBox="0 0 31 31" version="1.1" xmlns="http://www.w3.org/2000/svg" xmlns:xlink="http://www.w3.org/1999/xlink">
    <!-- Generator: Sketch 54.1 (76490) - https://sketchapp.com -->
    <title>T</title>
    <desc>Created with Sketch.</desc>
    <g id="Page-1" stroke="none" stroke-width="1" fill="none" fill-rule="evenodd" opacity="0.379580543">
        <g id="Car-concept" transform="translate(-32.000000, -31.000000)" fill="#444978" fill-rule="nonzero">
            <g id="T" transform="translate(32.000000, 31.000000)">
                <path d="M15.5178189,30.9144449 L19.8475669,6.56370079 C23.9745945,6.56370079 25.2763504,7.01625197 25.4643031,8.86343701 C25.4643031,8.86343701 28.2328228,7.83116142 29.6291654,5.73463386 C24.1802441,3.20972047 18.7053268,3.09585039 18.7053268,3.09585039 L15.5106181,6.98696063 L15.5178189,6.98647244 L12.3231102,3.09524016 C12.3231102,3.09524016 6.84807087,3.20923228 1.39988189,5.73414567 C2.79500394,7.83067323 5.56462205,8.86294882 5.56462205,8.86294882 C5.75367323,7.01564173 7.05384252,6.56309055 11.1531654,6.56016142 L15.5178189,30.9144449" id="path35"></path>
                <path d="M15.5161102,1.97191732 C19.9207953,1.93823228 24.9624449,2.65330709 30.1235787,4.90275984 C30.8133898,3.66117323 30.9907244,3.11244882 30.9907244,3.11244882 C25.3488465,0.880326772 20.0652992,0.116433071 15.5155,0.0972716535 C10.9659449,0.116433071 5.68264173,0.880448819 0.041496063,3.11244882 C0.041496063,3.11244882 0.29315748,3.78834646 0.908031496,4.90275984 C6.06818898,2.65330709 11.1106929,1.93823228 15.5155,1.97191732 L15.5161102,1.97191732" id="path37"></path>
            </g>
        </g>
    </g>
</svg>