<?xml version="1.0" encoding="UTF-8"?>
<svg width="10px" height="16px" viewBox="0 0 10 16" version="1.1" xmlns="http://www.w3.org/2000/svg" xmlns:xlink="http://www.w3.org/1999/xlink">
    <!-- Generator: Sketch 54.1 (76490) - https://sketchapp.com -->
    <title>Fill 1</title>
    <desc>Created with Sketch.</desc>
    <g id="Page-1" stroke="none" stroke-width="1" fill="none" fill-rule="evenodd">
        <g id="Car-concept" transform="translate(-987.000000, -624.000000)" fill="#CBCDE0">
            <path d="M987.000311,631.999872 C986.976213,627.721826 988.359335,625.029368 988.359335,625.029368 C988.599198,624.461244 989.254328,624 989.819259,624 L994.173208,624 C994.73923,624 995.410615,624.45374 995.649919,625.023736 C995.649919,625.023736 997.119886,627.751874 996.992128,632 C997.119903,636.248126 995.649919,638.976264 995.649919,638.976264 C995.400529,639.541892 994.738111,640 994.173208,640 L989.819259,640 C989.252678,640 988.589141,639.541252 988.357183,638.964376 C988.357183,638.964376 986.976309,636.278158 987.000412,632.000112 L987.000311,631.999872 Z M993.50041,637 C994.250205,637 995,634.701563 995,632.161232 C995,629.620901 994.250205,627 993.50041,627 C992.750614,627 992,629.701292 992,632.161232 C992,634.621172 992.750614,637 993.50041,637 Z" id="Fill-1"></path>
        </g>
    </g>
</svg>